<svg width="49" height="49" viewBox="0 0 49 49" fill="none" xmlns="http://www.w3.org/2000/svg">
<g clip-path="url(#clip0_23616_2096)">
<path d="M47.3003 26.2704C50.9352 13.1484 44.6473 0.523438 33.6283 0.523438C27.5312 0.523438 24.9283 4.02744 18.2313 12.1864C11.5333 20.3454 1.98325 9.00144 0.333252 26.2704C1.71925 42.1834 18.9853 56.5874 27.0013 43.2974C34.2993 31.1974 43.6663 39.3914 47.3013 26.2704H47.3003Z" fill="#FFDD76"/>
<path d="M21.9833 15.0822H22.5083L22.7073 14.5972C23.0373 13.7912 23.6173 13.3042 24.3333 13.3042C25.0493 13.3042 25.6293 13.7912 25.9593 14.5972L26.1583 15.0822H32.3333C32.5903 15.0822 32.8283 15.1622 33.0253 15.2972H29.0073V18.8532H19.6603V15.2972H15.6413C15.8383 15.1612 16.0763 15.0822 16.3333 15.0822H19.7883H21.9833ZM33.2963 16.0792V15.5542C33.4563 15.7602 33.5523 16.0192 33.5523 16.3012V34.5232C33.5523 34.8042 33.4563 35.0632 33.2963 35.2702V34.7452V16.0792ZM32.5153 35.5272H33.0253C32.8219 35.6676 32.5805 35.7427 32.3333 35.7422H16.3333C16.0862 35.7423 15.8448 35.6673 15.6413 35.5272H16.1513H32.5153ZM15.3703 34.7452V35.2702C15.2037 35.0568 15.1133 34.7939 15.1133 34.5232V16.3012C15.1133 16.0192 15.2093 15.7612 15.3693 15.5542V16.0792L15.3703 34.7452ZM28.7503 16.0792V15.2972H26.0233V15.1902C26.0233 14.2402 25.2613 13.5202 24.3333 13.5202C23.4053 13.5202 22.6433 14.2402 22.6433 15.1902V15.2972H19.9153V18.6382H28.7513V17.8562L28.7503 16.0792ZM22.8783 29.6022L23.4243 30.1362L23.9703 29.6022L29.1453 24.5422L29.3133 24.7072L23.4233 30.4652L20.2633 27.3742L20.4303 27.2092L22.8783 29.6022Z" fill="#63522B" stroke="#63522B" stroke-width="1.563"/>
</g>
<defs>
<clipPath id="clip0_23616_2096">
<rect width="48" height="48" fill="white" transform="translate(0.333252 0.523438)"/>
</clipPath>
</defs>
</svg>
