<svg width="49" height="48" viewBox="0 0 49 48" fill="none" xmlns="http://www.w3.org/2000/svg">
<g clip-path="url(#clip0_23616_1847)">
<path d="M47.3003 25.747C50.9353 12.625 44.6473 0 33.6283 0C27.5313 0 24.9283 3.504 18.2313 11.663C11.5333 19.822 1.98334 8.478 0.333344 25.747C1.71934 41.66 18.9853 56.064 27.0013 42.774C34.2993 30.674 43.6663 38.868 47.3013 25.747H47.3003Z" fill="#E6F1F9"/>
<mask id="mask0_23616_1847" style="mask-type:alpha" maskUnits="userSpaceOnUse" x="12" y="14" width="25" height="20">
<path d="M35.3333 14H13.3333C12.7811 14 12.3333 14.4477 12.3333 15V33C12.3333 33.5523 12.7811 34 13.3333 34H35.3333C35.8856 34 36.3333 33.5523 36.3333 33V15C36.3333 14.4477 35.8856 14 35.3333 14Z" fill="white"/>
</mask>
<g mask="url(#mask0_23616_1847)">
<path d="M35.3333 14H13.3333C12.7811 14 12.3333 14.4477 12.3333 15V33C12.3333 33.5523 12.7811 34 13.3333 34H35.3333C35.8856 34 36.3333 33.5523 36.3333 33V15C36.3333 14.4477 35.8856 14 35.3333 14Z" stroke="#036FC7" stroke-width="4"/>
<path d="M12.3333 20H28.3333V22H12.3333V20ZM12.3333 26H19.3333V28H12.3333V26Z" fill="#036FC7"/>
<path d="M18.3333 15H20.3333V21H18.3333V15ZM23.3333 21H25.3333V26H23.3333V21ZM28.3333 15H30.3333V21H28.3333V15Z" fill="#036FC7"/>
<path d="M35.3333 32V18C28.3333 18 29.8333 21.5 28.3333 24C26.8333 26.5 23.9733 25.472 21.3333 26C18.8333 26.5 18.8333 31 18.8333 33H34.3333C34.5986 33 34.8529 32.8946 35.0405 32.7071C35.228 32.5196 35.3333 32.2652 35.3333 32Z" stroke="#036FC7" stroke-width="2"/>
</g>
</g>
<defs>
<clipPath id="clip0_23616_1847">
<rect width="48" height="48" fill="white" transform="translate(0.333344)"/>
</clipPath>
</defs>
</svg>
