<svg width="24" height="25" viewBox="0 0 24 25" fill="none" xmlns="http://www.w3.org/2000/svg">
<path d="M12 0.523438C5.39999 0.523438 0 5.93308 0 12.5957C0 18.6198 4.39199 23.6198 10.128 24.5234V16.0897H7.07999V12.5957H10.128V9.93308C10.128 6.90898 11.916 5.24633 14.664 5.24633C15.972 5.24633 17.34 5.47525 17.34 5.47525V8.45115H15.828C14.34 8.45115 13.872 9.37886 13.872 10.3307V12.5957H17.208L16.668 16.0897H13.872V24.5234C16.6997 24.0751 19.2746 22.6265 21.1319 20.4392C22.9892 18.2519 24.0064 15.47 24 12.5957C24 5.93308 18.6 0.523438 12 0.523438Z" fill="#73787C" fill-opacity="0.5"/>
</svg>
