<svg width="49" height="48" viewBox="0 0 49 48" fill="none" xmlns="http://www.w3.org/2000/svg">
<g clip-path="url(#clip0_23616_1860)">
<path d="M1.69963 25.747C-1.93537 12.625 4.35263 0 15.3716 0C21.4686 0 24.0716 3.504 30.7686 11.663C37.4666 19.822 47.0166 8.478 48.6666 25.747C47.2806 41.66 30.0146 56.064 21.9986 42.774C14.7006 30.674 5.33363 38.868 1.69863 25.747H1.69963Z" fill="#E6F1F9"/>
<path d="M15.6666 13C15.0666 13 14.6666 13.4 14.6666 14V20C14.6666 20.6 15.0666 21 15.6666 21H30.6666C31.2666 21 31.6666 20.6 31.6666 20V18H32.6666V23H24.6666C23.5736 23 22.6666 23.907 22.6666 25V27C22.0666 27 21.6666 27.4 21.6666 28V34C21.6666 34.6 22.0666 35 22.6666 35H24.6666C25.2666 35 25.6666 34.6 25.6666 34V28C25.6666 27.4 25.2666 27 24.6666 27V25H32.6666C33.7596 25 34.6666 24.093 34.6666 23V18C34.6666 16.907 33.7596 16 32.6666 16H31.6666V14C31.6666 13.4 31.2666 13 30.6666 13H15.6666ZM16.6666 15H29.6666V19H16.6666V15Z" fill="#036FC7"/>
</g>
<defs>
<clipPath id="clip0_23616_1860">
<rect width="48" height="48" fill="white" transform="translate(0.666626)"/>
</clipPath>
</defs>
</svg>
