<svg width="49" height="48" viewBox="0 0 49 48" fill="none" xmlns="http://www.w3.org/2000/svg">
<g clip-path="url(#clip0_23616_1829)">
<path d="M33.9616 48C44.9806 48 51.2686 35.375 47.6336 22.253C43.9996 9.13096 34.6326 17.326 27.3336 5.22596C19.3206 -8.06404 2.05363 6.33896 0.666626 22.253C1.19663 30.835 8.59662 48 33.9616 48Z" fill="#E6F1F9"/>
<path d="M13.4166 35.2502V25.1622C14.5196 24.5752 16.8766 23.6592 19.5766 23.6592C21.2926 23.6592 22.7266 24.6672 24.4596 25.8842L24.4626 25.8862C26.1186 27.0502 28.0326 28.3862 30.4846 28.3862C32.9096 28.3862 34.7306 27.5222 35.9166 26.5962V35.2502H13.4166Z" stroke="#036FC7" stroke-width="1.5"/>
<path d="M17.6666 15C17.6666 14.7348 17.772 14.4804 17.9595 14.2929C18.1471 14.1054 18.4014 14 18.6666 14C18.9318 14 19.1862 14.1054 19.3737 14.2929C19.5613 14.4804 19.6666 14.7348 19.6666 15V23.16L17.6666 24V15ZM23.6666 13C23.6666 12.7348 23.772 12.4804 23.9595 12.2929C24.1471 12.1054 24.4014 12 24.6666 12C24.9318 12 25.1862 12.1054 25.3737 12.2929C25.5613 12.4804 25.6666 12.7348 25.6666 13V26L23.6666 25.006V13ZM29.6666 15C29.6666 14.7348 29.772 14.4804 29.9595 14.2929C30.1471 14.1054 30.4014 14 30.6666 14C30.9318 14 31.1862 14.1054 31.3737 14.2929C31.5613 14.4804 31.6666 14.7348 31.6666 15V28H29.6666V15Z" fill="#036FC7"/>
<path d="M13.6666 17C13.6666 16.7348 13.772 16.4804 13.9595 16.2929C14.1471 16.1054 14.4014 16 14.6666 16H34.6666C34.9318 16 35.1862 16.1054 35.3737 16.2929C35.5613 16.4804 35.6666 16.7348 35.6666 17C35.6666 17.2652 35.5613 17.5196 35.3737 17.7071C35.1862 17.8946 34.9318 18 34.6666 18H14.6666C14.4014 18 14.1471 17.8946 13.9595 17.7071C13.772 17.5196 13.6666 17.2652 13.6666 17ZM13.6666 21C13.6666 20.7348 13.772 20.4804 13.9595 20.2929C14.1471 20.1054 14.4014 20 14.6666 20H34.6666C34.9318 20 35.1862 20.1054 35.3737 20.2929C35.5613 20.4804 35.6666 20.7348 35.6666 21C35.6666 21.2652 35.5613 21.5196 35.3737 21.7071C35.1862 21.8946 34.9318 22 34.6666 22H14.6666C14.4014 22 14.1471 21.8946 13.9595 21.7071C13.772 21.5196 13.6666 21.2652 13.6666 21ZM15.6666 27H17.6666V29H15.6666V27ZM16.6666 31H18.6666V33H16.6666V31ZM21.6666 29H23.6666V31H21.6666V29ZM27.6666 31H29.6666V33H27.6666V31ZM31.6666 30H33.6666V32H31.6666V30Z" fill="#036FC7"/>
</g>
<defs>
<clipPath id="clip0_23616_1829">
<rect width="48" height="48" fill="white" transform="translate(0.666626)"/>
</clipPath>
</defs>
</svg>
