<svg width="42" height="41" viewBox="0 0 42 41" fill="none" xmlns="http://www.w3.org/2000/svg">
<path d="M18.6691 2.25362C25.6339 5.40662 27.2443 9.33962 27.5874 11.4036C27.9748 13.7596 27.1186 15.5406 26.2655 16.3476C25.4021 17.1676 24.4913 17.5816 23.5579 17.5816C23.289 17.5816 23.0365 17.5466 22.8027 17.4886L17.681 3.00362C17.6633 2.87839 17.6793 2.75083 17.7275 2.6334C17.7757 2.51597 17.8545 2.41268 17.9561 2.33362L18.6691 2.25362ZM18.6691 2.25162C18.554 2.20017 18.4265 2.18059 18.3007 2.19506C18.1749 2.20954 18.0556 2.25749 17.9561 2.33362L18.6691 2.25162ZM18.6691 2.25162L18.4507 2.70462C25.2713 5.79462 26.7642 9.59262 27.0784 11.4806C27.4421 13.6886 26.6313 15.3026 25.9059 15.9886H25.9049C25.1095 16.7456 24.3213 17.0806 23.5579 17.0806C23.3323 17.0803 23.1078 17.0507 22.8902 16.9926C23.5847 12.8076 22.9644 9.79462 21.7487 6.71262C21.6927 6.56398 21.6065 6.4278 21.4951 6.31217C21.3838 6.19654 21.2497 6.10382 21.1007 6.03954C20.9517 5.97526 20.7909 5.94072 20.6278 5.93799C20.4648 5.93525 20.3029 5.96437 20.1517 6.02362L20.1445 6.02662C19.8445 6.15371 19.6067 6.38857 19.4811 6.68197C19.3555 6.97538 19.3518 7.30458 19.4707 7.60062C20.6298 10.5406 21.1542 13.2406 20.3598 17.2646C19.8838 17.4036 19.4119 17.5226 18.9638 17.5226C17.7933 17.5226 16.8341 17.1556 16.115 16.5176C15.3938 15.8776 14.8827 14.9366 14.6725 13.7426C14.1285 10.6486 15.5215 8.49862 16.7331 6.65062L16.7558 6.61562C17.1515 6.01162 17.545 5.40962 17.8191 4.82562C18.1004 4.22762 18.2817 3.59562 18.191 2.93762C18.185 2.89854 18.1895 2.85863 18.2039 2.82168C18.2183 2.78474 18.2423 2.75201 18.2735 2.72662L17.9561 2.33362L18.6691 2.25162ZM18.6691 2.25162L18.4517 2.70562C18.4227 2.6927 18.3907 2.68752 18.359 2.69062C18.328 2.69517 18.2989 2.70759 18.2745 2.72662L17.9561 2.33362L18.6691 2.25162ZM22.2123 17.8256C22.1673 17.8081 22.1227 17.7897 22.0784 17.7706L21.9702 17.7256C21.8764 17.7756 21.7785 17.8226 21.6786 17.8666L22.2123 17.8256ZM22.2123 17.8256L21.8012 17.2436C21.7868 17.3217 21.772 17.3997 21.7569 17.4776L21.6941 17.5826L21.7322 17.6036L21.6786 17.8666L22.2123 17.8256ZM22.2123 17.8256C21.9405 19.1349 21.5917 20.428 21.1676 21.6986L22.2123 17.8256ZM22.2123 17.8256L21.1676 21.6986L22.2123 17.8256ZM21.6786 17.8666C21.4142 19.1098 21.0799 20.3379 20.6772 21.5456L21.6786 17.8666ZM21.6786 17.8666C21.5385 17.9288 21.3958 17.9855 21.251 18.0366L21.6786 17.8666ZM20.6772 21.5456L21.251 18.0356L20.6772 21.5456ZM20.6772 21.5456C20.6442 21.6446 20.5618 21.6896 20.4938 21.6896C20.4782 21.6893 20.4629 21.6862 20.4484 21.6806L20.4391 21.6776C20.3516 21.6476 20.2712 21.5316 20.3155 21.3936C20.6827 20.2935 20.9935 19.1765 21.2469 18.0466L20.6772 21.5456ZM20.6772 21.5456L21.2469 18.0456L20.6772 21.5456ZM21.251 18.0356L21.249 18.0456H21.2469L21.251 18.0356ZM21.251 18.0356L21.2469 18.0456L21.251 18.0356ZM21.1676 21.6986C21.1233 21.8392 21.0342 21.9624 20.9131 22.0507C20.792 22.1389 20.6452 22.1876 20.4938 22.1896C20.4184 22.1889 20.3438 22.1754 20.2733 22.1496C19.9003 22.0266 19.7015 21.6196 19.8241 21.2426L21.1676 21.6986ZM3.35982 25.5236L3.77297 25.2256L3.76061 25.2086L3.74721 25.1936L3.61018 25.0436C3.2197 24.6156 2.91164 24.2766 2.67467 23.7986C2.41709 23.2786 2.23267 22.5576 2.23267 21.3576V11.3576C2.23267 10.6406 2.47479 10.1536 2.80964 9.84462C3.14964 9.53062 3.63182 9.35762 4.18097 9.35762C4.73012 9.35762 5.21127 9.53062 5.5523 9.84462C5.88715 10.1546 6.12927 10.6406 6.12927 11.3576V18.4926C6.09594 18.5097 6.06329 18.5281 6.03139 18.5476C5.85019 18.663 5.68885 18.8054 5.55333 18.9696C5.23214 19.3631 5.01116 19.8246 4.90836 20.3166C4.66418 21.4236 4.92382 22.8396 6.256 24.2066L9.85794 28.1096L9.86103 28.1136C9.96876 28.2308 10.1008 28.3246 10.2486 28.3888C10.3963 28.4529 10.5563 28.486 10.7182 28.4858C10.88 28.4856 11.04 28.4521 11.1876 28.3877C11.3351 28.3232 11.467 28.2291 11.5744 28.1116C11.7873 27.8794 11.9046 27.5793 11.904 27.2685C11.9034 26.9578 11.785 26.6581 11.5713 26.4266L7.63764 22.1846L7.63454 22.1816C7.08642 21.6016 7.08333 20.6666 7.64794 20.0666L7.64897 20.0656C7.72315 19.9856 7.97351 19.7646 8.32073 19.7036C8.62261 19.6506 9.11921 19.6976 9.77345 20.3596L13.7041 24.6146L13.7092 24.6196L13.7144 24.6246C15.3989 26.3446 16.8053 28.4696 16.8053 31.3566V38.0236C16.8053 38.1196 16.8053 38.1836 16.7981 38.2416C16.796 38.2663 16.7901 38.2906 16.7805 38.3136C16.6913 38.3471 16.5959 38.3621 16.5003 38.3576H9.93006C9.88736 38.3582 9.84467 38.3558 9.8023 38.3506C9.76314 38.3464 9.72491 38.3363 9.68897 38.3206C9.6738 38.3149 9.66084 38.3048 9.65188 38.2916C9.64673 38.2836 9.62406 38.2436 9.62406 38.1416V32.8596L9.52412 32.7276C9.09964 32.1676 7.6603 30.2916 6.33018 28.5566L4.55188 26.2396L3.98521 25.5016L3.82861 25.2966L3.78739 25.2436L3.77709 25.2296L3.774 25.2266V25.2256L3.35982 25.5236ZM35.0828 18.4926V11.3576C35.0828 10.6406 35.325 10.1536 35.6598 9.84462C35.9998 9.53062 36.482 9.35762 37.0312 9.35762C37.5803 9.35762 38.0615 9.53062 38.4025 9.84462C38.7373 10.1546 38.9795 10.6406 38.9795 11.3576V21.3576C38.9795 22.5576 38.7961 23.2776 38.5385 23.7986C38.3015 24.2766 37.9924 24.6156 37.603 25.0436L37.4659 25.1936L37.4525 25.2086L37.4402 25.2256L37.8523 25.5236L37.4402 25.2256H37.4392L37.4361 25.2296L37.4258 25.2436L37.3845 25.2966L37.2279 25.5016L36.6613 26.2396L34.883 28.5566C33.8161 29.945 32.7515 31.335 31.689 32.7266L31.5891 32.8596V38.1406C31.5891 38.2436 31.5664 38.2836 31.5602 38.2916C31.5518 38.3042 31.5396 38.314 31.5252 38.3196C31.489 38.3354 31.4504 38.3455 31.4108 38.3496C31.3685 38.3548 31.3258 38.3572 31.2831 38.3566H24.7128C24.6174 38.3615 24.5219 38.3468 24.4326 38.3136C24.4231 38.2906 24.4172 38.2663 24.4151 38.2416C24.4077 38.1692 24.4049 38.0964 24.4068 38.0236V31.3566C24.4068 28.4696 25.8132 26.3436 27.4978 24.6246L27.5039 24.6196L27.5091 24.6146L31.4397 20.3596C32.0939 19.6976 32.5905 19.6506 32.8924 19.7036C33.2396 19.7636 33.49 19.9836 33.5683 20.0666C34.1298 20.6666 34.1267 21.6016 33.5807 22.1826L33.5786 22.1846L29.6418 26.4276H29.6398C29.4268 26.6594 29.3091 26.9591 29.3091 27.2696C29.3091 27.5802 29.4268 27.8799 29.6398 28.1116C29.7472 28.2289 29.879 28.3229 30.0264 28.3873C30.1739 28.4516 30.3338 28.485 30.4955 28.4852C30.6572 28.4854 30.8171 28.4524 30.9647 28.3883C31.1124 28.3243 31.2444 28.2307 31.3521 28.1136L31.3552 28.1096L34.9561 24.2056C36.2893 22.8396 36.5479 21.4236 36.3048 20.3166C36.2015 19.8249 35.9802 19.3637 35.6588 18.9706C35.5233 18.8061 35.362 18.6633 35.1807 18.5476C35.1488 18.5281 35.1162 18.5097 35.0828 18.4926Z" fill="#2C70C1" stroke="#2C70C1"/>
</svg>
