<svg width="48" height="49" viewBox="0 0 48 49" fill="none" xmlns="http://www.w3.org/2000/svg">
<g clip-path="url(#clip0_23618_4)">
<path d="M46.967 22.7764C50.602 35.8984 44.314 48.5234 33.295 48.5234C27.198 48.5234 18.5 47.5234 14.898 38.8604C11.427 30.5134 0.5 38.0234 0 20.7764C0 6.52337 20.876 -7.14063 26.668 5.74937C32.46 18.6384 43.333 9.65437 46.968 22.7764H46.967Z" fill="#E8F3FE"/>
<path d="M21.338 12.5231C21.338 12.5231 19.655 12.4831 18.706 13.5391C17.758 14.5941 17.903 16.3481 17.903 16.3481C17.903 16.3481 19.586 16.3911 20.535 15.3341C21.484 14.2771 21.338 12.5241 21.338 12.5241V12.5231ZM26.66 12.5231C26.66 12.5231 26.515 14.2781 27.463 15.3341C28.411 16.3901 30.093 16.3481 30.093 16.3481C30.093 16.3481 30.24 14.5951 29.292 13.5381C28.343 12.4831 26.66 12.5231 26.66 12.5231ZM15.463 13.7161C15.463 13.7161 14.349 15.0361 14.512 16.4751C14.675 17.9131 16.052 18.9251 16.052 18.9251L16.059 18.9151C16.349 19.1671 17.419 20.0101 18.597 19.8881C19.976 19.7451 20.97 18.3231 20.97 18.3231C20.97 18.3231 19.728 17.1351 18.35 17.2781C17.564 17.3601 16.912 17.8531 16.49 18.2651C16.78 17.7441 17.094 16.9771 17.003 16.1651C16.84 14.7261 15.463 13.7171 15.463 13.7171V13.7161ZM32.536 13.7161C32.536 13.7161 31.159 14.7281 30.996 16.1661C30.903 16.9791 31.216 17.7441 31.509 18.2651C31.086 17.8521 30.434 17.3601 29.649 17.2781C28.271 17.1351 27.028 18.3251 27.028 18.3251C27.028 18.3251 28.023 19.7471 29.401 19.8901C30.578 20.0121 31.649 19.1661 31.939 18.9161L31.946 18.9261C31.946 18.9261 33.323 17.9131 33.486 16.4751C33.65 15.0351 32.536 13.7161 32.536 13.7161ZM12.768 19.1371C12.768 19.1371 12.086 20.7471 12.654 22.0671C13.222 23.3891 14.826 23.9211 14.826 23.9211L14.833 23.9031C15.193 24.0181 16.491 24.3661 17.533 23.7801C18.751 23.0931 19.145 21.3821 19.145 21.3821C19.145 21.3821 17.562 20.7841 16.342 21.4711C15.752 21.8031 15.359 22.3741 15.107 22.8761C15.197 22.3201 15.215 21.6261 14.942 20.9921C14.375 19.6711 12.768 19.1371 12.768 19.1371ZM35.23 19.1371C35.23 19.1371 33.624 19.6711 33.056 20.9921C32.784 21.6241 32.802 22.3201 32.891 22.8761C32.639 22.3741 32.246 21.8031 31.656 21.4711C30.436 20.7841 28.853 21.3821 28.853 21.3821C28.853 21.3821 29.247 23.0941 30.466 23.7821C31.507 24.3671 32.805 24.0201 33.166 23.9051L33.172 23.9231C33.172 23.9231 34.777 23.3891 35.344 22.0681C35.913 20.7461 35.23 19.1371 35.23 19.1371ZM18.536 24.4771C18.536 24.4771 16.892 24.8481 16.205 26.1071C15.874 26.7131 15.829 27.4131 15.868 27.9771C15.665 27.4551 15.33 26.8541 14.781 26.4651C13.633 25.6531 12 26.0811 12 26.0811C12 26.0811 12.226 27.8251 13.374 28.6361C14.521 29.4491 16.156 29.0221 16.156 29.0221L16.153 29.0061C16.513 28.9061 17.796 28.4841 18.383 27.4061C19.069 26.1481 18.536 24.4781 18.536 24.4781V24.4771ZM29.462 24.4771C29.462 24.4771 28.93 26.1481 29.616 27.4071C30.204 28.4841 31.487 28.9071 31.847 29.0071L31.844 29.0221C31.844 29.0221 33.479 29.4501 34.626 28.6381C35.774 27.8261 36 26.0811 36 26.0811C36 26.0811 34.364 25.6531 33.217 26.4651C32.669 26.8551 32.334 27.4551 32.132 27.9781C32.172 27.4131 32.126 26.7131 31.795 26.1061C31.108 24.8481 29.462 24.4781 29.462 24.4781V24.4771ZM19.858 27.9071C19.858 27.9071 18.321 28.6251 17.898 30.0031C17.658 30.7891 17.83 31.6091 18.023 32.1781C17.682 31.6911 17.137 31.0851 16.387 30.8501C15.06 30.4341 13.624 31.3531 13.624 31.3531C13.624 31.3531 14.338 32.9461 15.665 33.3631C16.82 33.7241 18 33.1071 18.302 32.9331C18.893 33.5761 19.6 34.0081 20.356 34.3011C20.097 34.5111 19.868 34.7621 19.704 35.0871C19.6827 35.1216 19.6637 35.1573 19.647 35.1941L19.638 35.2101C19.5635 35.3824 19.5409 35.5726 19.5729 35.7575C19.6049 35.9424 19.69 36.1139 19.818 36.2511C19.9579 36.4003 20.1464 36.4947 20.3497 36.5174C20.5529 36.5402 20.7576 36.4897 20.927 36.3751C21.0718 36.2771 21.1856 36.1397 21.255 35.9791C21.34 35.7821 21.575 35.5891 22.169 35.4131C22.64 35.2731 23.295 35.1781 23.999 35.0801C24.703 35.1781 25.358 35.2731 25.829 35.4131C26.422 35.5891 26.658 35.7831 26.743 35.9791H26.745C26.815 36.1411 26.929 36.2791 27.072 36.3751C27.2137 36.4711 27.3808 36.5227 27.552 36.5231C27.6696 36.5227 27.786 36.4983 27.8939 36.4516C28.0019 36.4048 28.0992 36.3366 28.18 36.2511C28.3095 36.1148 28.3957 35.9431 28.4275 35.7578C28.4594 35.5725 28.4355 35.3819 28.359 35.2101H28.36L28.352 35.1941C28.3346 35.1552 28.3145 35.1174 28.292 35.0811C28.1334 34.7778 27.9117 34.5119 27.642 34.3011C28.398 34.0081 29.105 33.5761 29.696 32.9321C29.996 33.1061 31.176 33.7261 32.333 33.3641C33.66 32.9481 34.376 31.3541 34.376 31.3541C34.376 31.3541 32.94 30.4361 31.613 30.8521C30.863 31.0871 30.316 31.6931 29.975 32.1801C30.168 31.6101 30.341 30.7881 30.1 30.0041C29.677 28.6241 28.14 27.9071 28.14 27.9071C28.14 27.9071 27.29 29.4271 27.713 30.8051C27.833 31.1931 28.041 31.5231 28.277 31.8051L28.275 31.8061C27.37 32.6301 25.875 32.9411 24.299 33.1611L23.999 33.2031L23.699 33.1611C22.123 32.9411 20.627 32.6281 19.721 31.8041C19.957 31.5221 20.168 31.1921 20.287 30.8041C20.71 29.4251 19.858 27.9071 19.858 27.9071Z" fill="#2C70C1"/>
</g>
<defs>
<clipPath id="clip0_23618_4">
<rect width="48" height="48" fill="white" transform="translate(0 0.523438)"/>
</clipPath>
</defs>
</svg>
