<svg width="49" height="49" viewBox="0 0 49 49" fill="none" xmlns="http://www.w3.org/2000/svg">
<g clip-path="url(#clip0_23616_2077)">
<path d="M47.6337 22.7762C51.2687 35.8982 44.9807 48.5232 33.9617 48.5232C27.8647 48.5232 25.2617 45.0192 18.5647 36.8602C11.8667 28.7012 2.31667 40.0452 0.666672 22.7762C2.05267 6.86323 19.3187 -7.54077 27.3347 5.74923C34.6327 17.8492 43.9997 9.65423 47.6347 22.7762H47.6337Z" fill="#FFDD76"/>
<path d="M24.1597 16.0386H24.1607C24.2202 16.0197 24.2841 16.0197 24.3437 16.0386L34.9797 19.4266L35.0167 19.4386L35.0557 19.4446C35.1319 19.4569 35.2012 19.4963 35.2507 19.5556C35.306 19.6219 35.3367 19.7053 35.3377 19.7916V19.8056L35.3387 19.8206V28.9006L35.5817 29.0466C35.9287 29.2566 36.1667 29.6426 36.1667 30.0946C36.1667 30.2216 36.1017 30.4736 35.9477 30.8346C35.8027 31.1776 35.6057 31.5586 35.4027 31.9196C35.2677 32.1616 35.1327 32.3906 35.0117 32.5886C34.8917 32.3906 34.7557 32.1616 34.6197 31.9206C34.4192 31.5684 34.2372 31.2059 34.0747 30.8346C33.9217 30.4736 33.8567 30.2216 33.8567 30.0946C33.8567 29.6426 34.0947 29.2556 34.4417 29.0466L34.6837 28.9006V20.2856L34.0317 20.4926L24.3447 23.5796C24.2848 23.5987 24.2205 23.5987 24.1607 23.5796L13.4017 20.1516C13.3345 20.1292 13.2763 20.0857 13.2357 20.0276C13.1904 19.9637 13.1661 19.8874 13.1661 19.8091C13.1661 19.7308 13.1904 19.6545 13.2357 19.5906C13.2763 19.5325 13.3345 19.489 13.4017 19.4666L24.1597 16.0386ZM18.1307 28.7686V24.5026L23.3687 26.1716C23.9433 26.3559 24.5611 26.3559 25.1357 26.1716L30.3737 24.5026V28.7686L30.2487 28.7806C29.8667 28.8236 29.3257 28.9076 28.6787 29.0756C27.4627 29.3896 25.8687 30.0006 24.2527 31.1826C22.9233 30.207 21.4212 29.492 19.8257 29.0756C19.2693 28.9302 18.7027 28.8276 18.1307 28.7686Z" fill="#63522B" stroke="#63522B"/>
</g>
<defs>
<clipPath id="clip0_23616_2077">
<rect width="48" height="48" fill="white" transform="translate(0.666672 0.523438)"/>
</clipPath>
</defs>
</svg>
