<svg width="49" height="48" viewBox="0 0 49 48" fill="none" xmlns="http://www.w3.org/2000/svg">
<g clip-path="url(#clip0_23616_1875)">
<path d="M33.6283 48C44.6473 48 50.9353 35.375 47.3003 22.253C43.6663 9.13096 34.2993 17.326 27.0003 5.22596C18.9873 -8.06404 1.72034 6.33896 0.333344 22.253C0.863343 30.835 8.26334 48 33.6283 48Z" fill="#E6F1F9"/>
<path d="M14.3483 14V27.203C13.2513 27.836 12.3333 29.03 12.3333 30.363C12.3333 32.362 13.9973 34 16.0253 34H27.1033C29.1313 34 30.7953 32.361 30.7953 30.364C30.7911 29.722 30.6124 29.0932 30.2783 28.545L32.8333 28.5V30.364C32.8333 32.36 34.3053 34 36.3333 34V32.5C35.3033 32.5 34.3333 31.379 34.3333 30.364V23H32.8333V26.756L29.3883 26.727L30.7943 23.26V21.273H27.1033V18.546C27.1033 18.032 27.5053 17.636 28.0263 17.636V15.818C26.5083 15.818 25.2573 17.05 25.2573 18.546V21.273H24.0513L21.2803 14H14.3483ZM16.0253 15.818H20.0013L22.0783 21.273H16.0253V15.818ZM16.0253 23.091H28.8753L27.3333 26.727H16.0253V23.091ZM16.0253 28.546H27.1033C28.1343 28.546 28.9493 29.349 28.9493 30.364C28.9493 31.379 28.1343 32.182 27.1033 32.182H16.0253C14.9953 32.182 14.1793 31.379 14.1793 30.364C14.1793 29.349 14.9953 28.546 16.0253 28.546ZM16.0253 29.455C15.7803 29.455 15.5453 29.55 15.3733 29.721C15.2013 29.892 15.1033 30.123 15.1033 30.364C15.1033 30.605 15.2003 30.836 15.3733 31.007C15.5473 31.1783 15.7817 31.2743 16.0258 31.2743C16.27 31.2743 16.5044 31.1783 16.6783 31.007C16.7637 30.9231 16.8314 30.823 16.8777 30.7126C16.9239 30.6022 16.9478 30.4837 16.9478 30.364C16.9478 30.2443 16.9239 30.1258 16.8777 30.0154C16.8314 29.905 16.7637 29.8049 16.6783 29.721C16.504 29.5501 16.2695 29.4545 16.0253 29.455ZM19.7183 29.455C19.4742 29.4543 19.2395 29.5499 19.0653 29.721C18.9801 29.805 18.9125 29.9051 18.8663 30.0155C18.8201 30.1259 18.7963 30.2443 18.7963 30.364C18.7963 30.4837 18.8201 30.6021 18.8663 30.7125C18.9125 30.8229 18.9801 30.923 19.0653 31.007C19.2393 31.1783 19.4737 31.2743 19.7178 31.2743C19.962 31.2743 20.1964 31.1783 20.3703 31.007C20.4557 30.9231 20.5234 30.823 20.5697 30.7126C20.6159 30.6022 20.6398 30.4837 20.6398 30.364C20.6398 30.2443 20.6159 30.1258 20.5697 30.0154C20.5234 29.905 20.4557 29.8049 20.3703 29.721C20.1963 29.5503 19.9621 29.4548 19.7183 29.455ZM23.4103 29.455C23.1662 29.4543 22.9315 29.5499 22.7573 29.721C22.6721 29.805 22.6045 29.9051 22.5583 30.0155C22.5121 30.1259 22.4883 30.2443 22.4883 30.364C22.4883 30.4837 22.5121 30.6021 22.5583 30.7125C22.6045 30.8229 22.6721 30.923 22.7573 31.007C22.9314 31.1786 23.1659 31.2748 23.4103 31.2748C23.6547 31.2748 23.8893 31.1786 24.0633 31.007C24.1487 30.9231 24.2164 30.823 24.2627 30.7126C24.3089 30.6022 24.3328 30.4837 24.3328 30.364C24.3328 30.2443 24.3089 30.1258 24.2627 30.0154C24.2164 29.905 24.1487 29.8049 24.0633 29.721C23.889 29.5501 23.6545 29.4545 23.4103 29.455ZM27.1023 29.455C26.8582 29.4543 26.6235 29.5499 26.4493 29.721C26.3641 29.805 26.2965 29.9051 26.2503 30.0155C26.2041 30.1259 26.1803 30.2443 26.1803 30.364C26.1803 30.4837 26.2041 30.6021 26.2503 30.7125C26.2965 30.8229 26.3641 30.923 26.4493 31.007C26.6234 31.1786 26.8579 31.2748 27.1023 31.2748C27.3467 31.2748 27.5813 31.1786 27.7553 31.007C27.8407 30.9231 27.9084 30.823 27.9547 30.7126C28.0009 30.6022 28.0248 30.4837 28.0248 30.364C28.0248 30.2443 28.0009 30.1258 27.9547 30.0154C27.9084 29.905 27.8407 29.8049 27.7553 29.721C27.581 29.5501 27.3465 29.4545 27.1023 29.455Z" fill="#036FC7"/>
</g>
<defs>
<clipPath id="clip0_23616_1875">
<rect width="48" height="48" fill="white" transform="translate(0.333344)"/>
</clipPath>
</defs>
</svg>
