<svg width="104" height="81" viewBox="0 0 104 81" fill="none" xmlns="http://www.w3.org/2000/svg">
<path d="M63.4659 33.4805L63.4652 33.4817L63.4614 33.4886L63.3188 33.7473H63.3185C60.6311 38.667 59.2778 44.144 59.2778 50.2093C59.2778 59.0721 61.1593 66.0912 64.7895 71.3896C68.273 76.3782 74.1255 79.0235 82.7628 79.0235C88.1549 79.0235 92.1943 77.3669 95.0824 74.1908L95.0846 74.1884L63.4659 33.4805ZM63.4659 33.4805C66.3139 28.2791 69.7674 23.6638 73.8259 19.6282C78.0186 15.4644 82.4576 11.9388 87.1425 9.04553C91.3247 6.46273 94.905 4.29738 97.8854 2.5481L101.877 8.84791C97.6117 11.1972 94.0919 13.2753 91.3264 15.0807C88.1915 17.0276 85.0352 19.6181 81.8544 22.8309C81.8539 22.8313 81.8534 22.8318 81.853 22.8323L81.8518 22.8335M63.4659 33.4805L81.8518 22.8335M81.8518 22.8335C78.7376 25.9859 76.3415 29.2738 74.6957 32.7025L74.6933 32.7075L74.6933 32.7075M81.8518 22.8335L74.6933 32.7075M74.6933 32.7075L74.6897 32.7152M74.6933 32.7075L74.6897 32.7152M74.6897 32.7152L74.6866 32.7219L74.6863 32.7225M74.6897 32.7152L74.6863 32.7225M74.6863 32.7225C73.1399 36.0696 72.0712 40.378 71.436 45.5916L71.2994 46.7125L71.2311 47.273M74.6863 32.7225L71.2311 47.273M71.2311 47.273H71.7957M71.2311 47.273H71.7957M71.7957 47.273H72.9249H80.4204C86.6483 47.273 91.313 48.7464 94.6036 51.5064L94.6045 51.5071M71.7957 47.273L94.6045 51.5071M94.6045 51.5071L94.616 51.5167L94.6159 51.5169M94.6045 51.5071L94.6159 51.5169M94.6159 51.5169L94.6253 51.5243M94.6159 51.5169L94.6253 51.5243M94.6253 51.5243L94.637 51.5336L94.6384 51.5347M94.6253 51.5243L94.6384 51.5347M94.6384 51.5347C97.9467 54.1453 99.689 58.0498 99.689 63.518M94.6384 51.5347L99.689 63.518M99.689 63.518C99.689 67.2133 98.2156 70.7592 95.0867 74.186L99.689 63.518ZM24.0753 22.8321L24.0752 22.8323L24.0728 22.8347C21.0589 25.8927 18.7173 29.1313 17.0741 32.5546C15.4185 36.0038 14.2948 40.3669 13.6582 45.5916L13.5216 46.7125L13.4533 47.273H14.0179H15.1471H22.6426C28.8705 47.273 33.5352 48.7464 36.8259 51.5064L36.8365 51.5153L36.8419 51.5199L36.8475 51.5243L36.8592 51.5336L36.8606 51.5347C40.1689 54.1454 41.9114 58.0498 41.9114 63.518C41.9114 67.2141 40.4372 70.7608 37.3068 74.1884L37.3067 74.1883L37.3047 74.1908C37.3036 74.192 37.3025 74.1932 37.3014 74.1944C34.4134 77.3682 30.3751 79.0235 24.985 79.0235C16.3476 79.0235 10.495 76.378 7.01157 71.3894C3.3815 66.091 1.5 59.0719 1.5 50.2093C1.5 44.144 2.85333 38.667 5.54076 33.7473H5.54116L5.68368 33.4884L5.68748 33.4815L5.68805 33.4805C8.53609 28.2791 11.9897 23.6638 16.0482 19.6282C20.2408 15.4644 24.6799 11.9388 29.3647 9.04553C33.5469 6.46272 37.1273 4.29737 40.1077 2.54809L44.0992 8.84791C39.8339 11.1972 36.3142 13.2753 33.5486 15.0807C30.4134 17.0279 27.2566 19.6188 24.0753 22.8321Z" stroke="#DADEDF"/>
</svg>
