<svg width="48" height="49" viewBox="0 0 48 49" fill="none" xmlns="http://www.w3.org/2000/svg">
<g clip-path="url(#clip0_23618_26)">
<path d="M1.033 22.7764C-2.602 35.8984 3.686 48.5234 14.705 48.5234C20.802 48.5234 29.5 47.5234 33.102 38.8604C36.573 30.5134 47.5 38.0234 48 20.7764C48 6.52337 27.124 -7.14063 21.332 5.74937C15.54 18.6384 4.667 9.65337 1.032 22.7764H1.033Z" fill="#E8F3FE"/>
<path d="M25.557 22.2475C25.609 22.2545 25.663 22.2575 25.719 22.2575C26.097 22.2575 26.509 22.0885 26.946 21.6605C27.319 21.2965 27.774 20.3955 27.572 19.1305C27.402 18.0805 26.597 15.8965 22.805 14.0825C22.826 14.4785 22.713 14.8505 22.559 15.1885C22.393 15.5515 22.158 15.9225 21.93 16.2805L21.913 16.3075C21.207 17.4175 20.439 18.6475 20.742 20.4215L25.557 22.2475ZM25.557 22.2475C25.92 19.7935 25.552 17.9955 24.852 16.1665C24.81 16.0524 24.7454 15.9479 24.6622 15.8593C24.5791 15.7706 24.4789 15.6995 24.3677 15.6503C24.2566 15.601 24.1366 15.5746 24.0151 15.5726C23.8935 15.5706 23.7727 15.593 23.66 15.6385L23.653 15.6415C23.4308 15.7382 23.2546 15.9172 23.1614 16.1409C23.0682 16.3646 23.0652 16.6156 23.153 16.8415C23.804 18.5475 24.105 20.1045 23.683 22.4115L25.557 22.2475ZM25.557 22.2475L23.682 22.4115L25.557 22.2475ZM23.682 22.4115C23.4754 22.4776 23.2608 22.5153 23.044 22.5235C22.408 22.5235 21.898 22.3185 21.52 21.9735C21.138 21.6235 20.858 21.1025 20.742 20.4225L23.682 22.4115ZM13.957 27.5235L14.357 27.2245L14.345 27.2085L14.332 27.1935L14.253 27.1045C14.023 26.8445 13.863 26.6625 13.738 26.4025C13.604 26.1245 13.5 25.7235 13.5 25.0235V19.0235C13.5 18.6405 13.624 18.4035 13.774 18.2605C13.929 18.1135 14.158 18.0235 14.434 18.0235C14.712 18.0235 14.94 18.1135 15.095 18.2605C15.245 18.4035 15.37 18.6405 15.37 19.0235V23.1935C15.2612 23.2699 15.1636 23.3611 15.08 23.4645C14.8725 23.7251 14.7296 24.0311 14.663 24.3575C14.506 25.0895 14.679 26.0045 15.496 26.8675L17.591 29.2085L17.594 29.2125C17.6756 29.3034 17.7754 29.3761 17.8869 29.4258C17.9985 29.4755 18.1193 29.5011 18.2414 29.5009C18.3636 29.5007 18.4843 29.4747 18.5957 29.4247C18.7071 29.3747 18.8067 29.3017 18.888 29.2105C19.0451 29.0347 19.1319 28.8073 19.1319 28.5715C19.1319 28.3358 19.0451 28.1083 18.888 27.9325L18.886 27.9305L16.596 25.3865L16.593 25.3835C16.4711 25.245 16.4045 25.0665 16.406 24.882C16.4075 24.6975 16.4769 24.52 16.601 24.3835H16.603C16.6783 24.3054 16.775 24.2515 16.881 24.2285C16.978 24.2105 17.202 24.2055 17.545 24.5615L19.832 27.1115L19.837 27.1165L19.842 27.1225C20.804 28.1345 21.587 29.3625 21.587 31.0235V35.0235H17.804V31.8595L17.707 31.7275C16.7448 30.4272 15.7795 29.1292 14.811 27.8335L14.481 27.3905L14.39 27.2675L14.366 27.2355L14.36 27.2275L14.358 27.2255L13.957 27.5235ZM31.408 25.3835L31.406 25.3865L29.114 27.9305L29.112 27.9325C28.9552 28.1082 28.8685 28.3355 28.8685 28.571C28.8685 28.8065 28.9552 29.0338 29.112 29.2095C29.1931 29.3009 29.2926 29.3741 29.404 29.4243C29.5154 29.4745 29.6361 29.5006 29.7583 29.5009C29.8805 29.5012 30.0014 29.4756 30.113 29.4259C30.2246 29.3762 30.3245 29.3035 30.406 29.2125L30.409 29.2085L32.504 26.8685C33.321 26.0045 33.494 25.0885 33.338 24.3575C33.2713 24.0312 33.1284 23.7252 32.921 23.4645C32.8375 23.3608 32.7399 23.2692 32.631 23.1925V19.0235C32.631 18.6405 32.755 18.4035 32.905 18.2605C33.06 18.1135 33.288 18.0235 33.565 18.0235C33.842 18.0235 34.071 18.1135 34.225 18.2605C34.375 18.4035 34.5 18.6405 34.5 19.0235V25.0235C34.5 25.7235 34.396 26.1235 34.262 26.4025C34.137 26.6625 33.976 26.8445 33.747 27.1045L33.668 27.1935L33.655 27.2085L33.643 27.2245L34.043 27.5245L33.643 27.2245V27.2255L33.641 27.2275L33.634 27.2355L33.61 27.2675L33.519 27.3905L33.189 27.8335C32.2231 29.1311 31.2577 30.4291 30.293 31.7275L30.196 31.8595V35.0235H26.413V31.0235C26.413 29.3625 27.196 28.1335 28.158 27.1225L28.163 27.1165L28.168 27.1115L30.455 24.5615C30.798 24.2045 31.022 24.2115 31.119 24.2285C31.259 24.2535 31.369 24.3495 31.401 24.3845C31.5241 24.5216 31.5928 24.699 31.5941 24.8832C31.5954 25.0674 31.5292 25.2458 31.408 25.3845V25.3835Z" fill="#2C70C1" stroke="#2C70C1"/>
</g>
<defs>
<clipPath id="clip0_23618_26">
<rect width="48" height="48" fill="white" transform="translate(0 0.523438)"/>
</clipPath>
</defs>
</svg>
