<svg width="48" height="49" viewBox="0 0 48 49" fill="none" xmlns="http://www.w3.org/2000/svg">
<g clip-path="url(#clip0_23618_19)">
<path d="M33.295 48.5234C44.314 48.5234 50.602 35.8984 46.967 22.7764C43.333 9.6544 33.966 17.8494 26.667 5.7494C18.654 -7.5406 1.387 6.8624 0 22.7764C0.53 31.3584 7.93 48.5234 33.295 48.5234Z" fill="#E8F3FE"/>
<path d="M20.374 13.4234L19.496 14.5534L19.494 14.5564C19.3864 14.6948 19.2413 14.7993 19.076 14.8574L17.74 15.3354L20.374 13.4234ZM20.374 13.4234C20.714 12.9834 21.246 12.7274 21.802 12.7184C21.9902 12.716 22.1776 12.7419 22.358 12.7954H22.36L23.716 13.1854C23.886 13.2404 24.079 13.2404 24.248 13.1854L25.605 12.7954H25.606C26.342 12.5784 27.136 12.8354 27.59 13.4224L28.468 14.5534L28.471 14.5564C28.575 14.6864 28.714 14.7994 28.888 14.8574L30.224 15.3354C30.5728 15.4585 30.8767 15.6835 31.0961 15.9813C31.3156 16.279 31.4406 16.6358 31.455 17.0054L31.499 18.4154C31.499 18.6044 31.555 18.7754 31.669 18.9204L32.477 20.0894L32.479 20.0914C32.913 20.6974 32.913 21.5414 32.479 22.1464L32.477 22.1494L31.665 23.3234L31.664 23.3254C31.5604 23.4712 31.5029 23.6446 31.499 23.8234L31.455 25.2334C31.4407 25.6029 31.3158 25.9596 31.0965 26.2574C30.8773 26.5551 30.5736 26.7802 30.225 26.9034L20.374 13.4234ZM20.374 13.4234L30.225 26.9034L20.374 13.4234ZM16.51 17.0034V17.0044L16.466 18.4144C16.4621 18.5932 16.4046 18.7667 16.301 18.9124L16.3 18.9144L15.49 20.0844C15.2943 20.3983 15.1923 20.7616 15.196 21.1315C15.1997 21.5014 15.309 21.8625 15.511 22.1724L16.318 23.3384C16.4307 23.4824 16.4907 23.6606 16.488 23.8434L16.532 25.2534V25.2544C16.552 25.9974 17.046 26.6674 17.762 26.9244L18.462 27.1624L18.652 27.2264L18.582 27.4144L16.059 34.2414C16.0292 34.3248 16.0249 34.4152 16.0466 34.501C16.0683 34.5868 16.1151 34.6643 16.181 34.7234C16.321 34.8464 16.523 34.8774 16.695 34.8004C17.3285 34.5059 18.0528 34.4742 18.7096 34.7122C19.3663 34.9502 19.9022 35.4385 20.2 36.0704C20.275 36.2324 20.44 36.3274 20.615 36.3274H20.628C20.827 36.3074 20.988 36.1954 21.045 36.0254L21.046 36.0204L23.57 29.1504L23.596 29.0764L23.666 29.0414L23.71 29.0204L23.722 29.0144L23.735 29.0094C23.9093 28.9536 24.0967 28.9536 24.271 29.0094L25.628 29.3994C26.365 29.6164 27.158 29.3594 27.613 28.7714L28.403 27.7494L28.62 27.4694L28.741 27.8014L30.76 33.3024L30.863 33.5824L30.565 33.5644C30.0631 33.5301 29.5595 33.6004 29.0861 33.7708C28.6128 33.9413 28.1799 34.2081 27.815 34.5544L27.601 34.7604L27.497 34.4814L26.357 31.4164C26.26 31.1624 25.997 31.0504 25.777 31.1374C25.53 31.2364 25.408 31.5024 25.492 31.7094L25.494 31.7154L27.052 35.9764C27.11 36.1364 27.279 36.2644 27.47 36.2834H27.483C27.5698 36.2832 27.6549 36.2588 27.7286 36.2129C27.8022 36.1669 27.8616 36.1013 27.9 36.0234C28.1985 35.3925 28.7345 34.9052 29.391 34.668C30.0475 34.4308 30.7711 34.463 31.404 34.7574L16.51 17.0034ZM16.509 17.0034L31.403 34.7574L16.509 17.0034ZM16.509 17.0034C16.5233 16.6339 16.6482 16.2772 16.8675 15.9795C17.0868 15.6817 17.3904 15.4567 17.739 15.3334L16.509 17.0034ZM31.403 34.7574C31.487 34.7947 31.58 34.8072 31.6709 34.7933C31.7618 34.7795 31.8468 34.74 31.916 34.6794C31.9817 34.6203 32.0284 34.5431 32.0501 34.4575C32.0718 34.3718 32.0676 34.2817 32.038 34.1984L29.536 27.3484L29.468 27.1624L29.656 27.0974L30.226 26.9024L31.403 34.7574ZM31.403 34.7574L30.225 26.9024L31.403 34.7574ZM19.692 27.9004L19.477 27.6264L19.356 27.9534L17.338 33.3884L17.24 33.6514H17.784C18.203 33.6514 18.618 33.7144 19.01 33.8564C19.497 34.0464 19.931 34.2944 20.28 34.6394L20.495 34.8524L20.6 34.5674L22.377 29.7414L22.474 29.4784H22.194C22.13 29.4784 22.067 29.4844 22.014 29.4894H22.01C21.9619 29.4953 21.9135 29.4987 21.865 29.4994C21.5827 29.4986 21.3041 29.4346 21.0497 29.3121C20.7953 29.1896 20.5716 29.0117 20.395 28.7914L19.692 27.9004ZM28.138 21.1294C28.138 18.8674 26.272 17.0204 23.993 17.0204C21.715 17.0204 19.849 18.8674 19.849 21.1294C19.849 23.3914 21.715 25.2384 23.993 25.2384C26.272 25.2384 28.138 23.3914 28.138 21.1284V21.1294ZM23.53 20.0434C23.53 19.7834 23.726 19.5864 23.993 19.5864C24.26 19.5864 24.456 19.7834 24.456 20.0434V22.2174C24.456 22.4774 24.26 22.6744 23.993 22.6744C23.9322 22.6765 23.8715 22.6661 23.8148 22.6439C23.7581 22.6218 23.7065 22.5883 23.6632 22.5455C23.6199 22.5027 23.5857 22.4516 23.5628 22.3952C23.5399 22.3388 23.5287 22.2783 23.53 22.2174V20.0434Z" fill="#2C70C1" stroke="#2C70C1" stroke-width="0.391"/>
</g>
<defs>
<clipPath id="clip0_23618_19">
<rect width="48" height="48" fill="white" transform="translate(0 0.523438)"/>
</clipPath>
</defs>
</svg>
