<svg width="49" height="49" viewBox="0 0 49 49" fill="none" xmlns="http://www.w3.org/2000/svg">
<g clip-path="url(#clip0_23616_2025)">
<path d="M48.3333 28.0984C48.3333 16.8434 46.7363 0.523438 26.7853 0.523438C6.83427 0.523438 17.5903 19.8344 5.46227 27.2884C-7.85673 35.4734 7.24227 48.5234 22.5283 48.5234C34.3033 48.5234 48.3333 42.6964 48.3333 28.0984Z" fill="#E2F9C3"/>
<path d="M20.4763 15.5234C19.5473 15.5234 18.7423 15.9034 18.2283 16.4814C17.7133 17.0594 17.4763 17.7974 17.4763 18.5234C17.4763 19.2494 17.7133 19.9874 18.2283 20.5654C18.7423 21.1444 19.5483 21.5234 20.4763 21.5234C21.4043 21.5234 22.2103 21.1434 22.7243 20.5654C23.2383 19.9874 23.4763 19.2494 23.4763 18.5234C23.4763 17.7974 23.2383 17.0594 22.7243 16.4814C22.2103 15.9024 21.4043 15.5234 20.4763 15.5234ZM28.1903 15.5234C27.2623 15.5234 26.4563 15.9034 25.9423 16.4814C25.4283 17.0594 25.1903 17.7974 25.1903 18.5234C25.1903 19.2494 25.4283 19.9874 25.9423 20.5654C26.4563 21.1444 27.2623 21.5234 28.1903 21.5234C29.1193 21.5234 29.9243 21.1434 30.4393 20.5654C30.9533 19.9874 31.1903 19.2494 31.1903 18.5234C31.1903 17.7974 30.9533 17.0594 30.4393 16.4814C29.9243 15.9024 29.1193 15.5234 28.1903 15.5234ZM20.4763 17.2374C20.9763 17.2374 21.2423 17.3944 21.4423 17.6194C21.6423 17.8444 21.7623 18.1784 21.7623 18.5234C21.7623 18.8684 21.6423 19.2024 21.4423 19.4274C21.2423 19.6524 20.9763 19.8094 20.4763 19.8094C19.9763 19.8094 19.7103 19.6524 19.5103 19.4274C19.3103 19.2024 19.1903 18.8684 19.1903 18.5234C19.1903 18.1784 19.3103 17.8444 19.5103 17.6194C19.7103 17.3944 19.9763 17.2374 20.4763 17.2374ZM28.1903 17.2374C28.6903 17.2374 28.9563 17.3944 29.1563 17.6194C29.3563 17.8444 29.4763 18.1784 29.4763 18.5234C29.4763 18.8684 29.3563 19.2024 29.1563 19.4274C28.9563 19.6524 28.6903 19.8094 28.1903 19.8094C27.6903 19.8094 27.4243 19.6524 27.2243 19.4274C27.0243 19.2024 26.9043 18.8684 26.9043 18.5234C26.9043 18.1784 27.0243 17.8444 27.2243 17.6194C27.4243 17.3944 27.6903 17.2374 28.1903 17.2374ZM16.6193 21.5234C15.8333 21.5234 15.1353 21.8494 14.6923 22.3474C14.2701 22.8308 14.0405 23.4527 14.0473 24.0944C14.0473 24.6074 14.2823 25.0964 14.5813 25.5424C13.2653 26.2764 12.3333 27.6324 12.3333 29.2374H14.0473C14.0457 28.8993 14.1111 28.5642 14.2398 28.2514C14.3685 27.9387 14.5579 27.6546 14.7971 27.4156C15.0363 27.1765 15.3204 26.9872 15.6332 26.8586C15.9459 26.73 16.2811 26.6647 16.6193 26.6664C17.2665 26.6647 17.8902 26.9091 18.3639 27.3501C18.8376 27.7911 19.1258 28.3957 19.1703 29.0414C18.0802 30.2802 17.4781 31.8733 17.4763 33.5234H19.1903C19.1903 30.6734 21.4833 28.3804 24.3333 28.3804C27.1833 28.3804 29.4763 30.6734 29.4763 33.5234H31.1903C31.1903 31.8074 30.5453 30.2434 29.4963 29.0414C29.5407 28.3957 29.8289 27.7911 30.3027 27.3501C30.7764 26.9091 31.4 26.6647 32.0473 26.6664C32.3854 26.6647 32.7206 26.73 33.0333 26.8586C33.3461 26.9872 33.6303 27.1765 33.8694 27.4156C34.1086 27.6546 34.298 27.9387 34.4267 28.2514C34.5554 28.5642 34.6208 28.8993 34.6193 29.2374H36.3333C36.3333 27.6624 35.4623 26.2944 34.1873 25.5494C34.4773 25.1074 34.6193 24.5994 34.6193 24.0944C34.6264 23.4526 34.3968 22.8306 33.9743 22.3474C33.5312 21.8494 32.8333 21.5234 32.0473 21.5234C31.2613 21.5234 30.5633 21.8494 30.1203 22.3474C29.6984 22.831 29.4692 23.4528 29.4763 24.0944C29.4763 24.5994 29.6183 25.1074 29.9083 25.5494C29.043 26.0526 28.3806 26.842 28.0353 27.7814C27.6937 27.5553 27.3326 27.3602 26.9563 27.1984C27.479 26.5669 27.7641 25.7723 27.7623 24.9524C27.7623 24.1184 27.4883 23.2734 26.9023 22.6154C26.3183 21.9554 25.4053 21.5234 24.3333 21.5234C23.2613 21.5234 22.3493 21.9564 21.7633 22.6154C21.1783 23.2734 20.9043 24.1184 20.9043 24.9524C20.9043 25.7514 21.1733 26.5524 21.7103 27.1984C21.3318 27.361 20.9687 27.5572 20.6253 27.7844C20.2505 26.8306 19.5539 26.0378 18.6563 25.5434C18.9563 25.0964 19.1903 24.6074 19.1903 24.0944C19.1903 23.4754 18.9883 22.8444 18.5463 22.3474C18.1033 21.8494 17.4043 21.5234 16.6193 21.5234ZM16.6193 23.2374C16.9763 23.2374 17.1353 23.3404 17.2633 23.4854C17.3923 23.6304 17.4763 23.8564 17.4763 24.0954C17.4763 24.3344 17.3923 24.5594 17.2633 24.7044C17.1353 24.8494 16.9763 24.9524 16.6193 24.9524C16.2623 24.9524 16.1033 24.8494 15.9743 24.7044C15.8453 24.5594 15.7623 24.3334 15.7623 24.0944C15.7623 23.8554 15.8463 23.6304 15.9743 23.4854C16.1023 23.3404 16.2623 23.2374 16.6193 23.2374ZM24.3333 23.2374C24.9763 23.2374 25.3493 23.4474 25.6203 23.7534C25.8913 24.0594 26.0473 24.4994 26.0473 24.9524C26.0473 25.4054 25.8923 25.8454 25.6203 26.1504C25.3483 26.4554 24.9763 26.6664 24.3333 26.6664C23.6903 26.6664 23.3173 26.4564 23.0463 26.1504C22.7753 25.8444 22.6193 25.4044 22.6193 24.9524C22.6193 24.5004 22.7743 24.0584 23.0463 23.7524C23.3183 23.4464 23.6903 23.2374 24.3333 23.2374ZM32.0473 23.2374C32.4043 23.2374 32.5633 23.3404 32.6923 23.4854C32.8213 23.6304 32.9043 23.8564 32.9043 24.0954C32.9043 24.3344 32.8203 24.5594 32.6923 24.7044C32.5643 24.8494 32.4043 24.9524 32.0473 24.9524C31.6903 24.9524 31.5313 24.8494 31.4033 24.7044C31.2743 24.5594 31.1903 24.3334 31.1903 24.0944C31.1903 23.8554 31.2743 23.6304 31.4033 23.4854C31.5313 23.3404 31.6903 23.2374 32.0473 23.2374Z" fill="#3A8241"/>
</g>
<defs>
<clipPath id="clip0_23616_2025">
<rect width="48" height="48" fill="white" transform="translate(0.333252 0.523438)"/>
</clipPath>
</defs>
</svg>
