<svg width="49" height="49" viewBox="0 0 49 49" fill="none" xmlns="http://www.w3.org/2000/svg">
<g clip-path="url(#clip0_23616_2011)">
<path d="M47.6337 26.2704C51.2687 13.1484 44.9807 0.523438 33.9617 0.523438C27.8647 0.523438 25.2617 4.02744 18.5647 12.1864C11.8667 20.3454 2.31667 9.00144 0.666672 26.2704C2.05267 42.1834 19.3187 56.5874 27.3347 43.2974C34.6327 31.1974 43.9997 39.3914 47.6347 26.2704H47.6337Z" fill="#E2F9C3"/>
<path fill-rule="evenodd" clip-rule="evenodd" d="M34.6667 15.5234C34.6667 15.7887 34.5613 16.043 34.3738 16.2305C34.1862 16.4181 33.9319 16.5234 33.6667 16.5234C33.4015 16.5234 33.1471 16.4181 32.9596 16.2305C32.772 16.043 32.6667 15.7887 32.6667 15.5234C32.6667 15.2582 32.772 15.0039 32.9596 14.8163C33.1471 14.6288 33.4015 14.5234 33.6667 14.5234C33.9319 14.5234 34.1862 14.6288 34.3738 14.8163C34.5613 15.0039 34.6667 15.2582 34.6667 15.5234ZM35.6667 15.5234C35.6667 16.0539 35.456 16.5626 35.0809 16.9377C34.7058 17.3127 34.1971 17.5234 33.6667 17.5234C33.1362 17.5234 32.6275 17.3127 32.2525 16.9377C31.8774 16.5626 31.6667 16.0539 31.6667 15.5234C31.6667 14.993 31.8774 14.4843 32.2525 14.1092C32.6275 13.7342 33.1362 13.5234 33.6667 13.5234C34.1971 13.5234 34.7058 13.7342 35.0809 14.1092C35.456 14.4843 35.6667 14.993 35.6667 15.5234ZM15.6667 20.0234C16.0645 20.0234 16.446 19.8654 16.7273 19.5841C17.0086 19.3028 17.1667 18.9213 17.1667 18.5234C17.1667 18.1256 17.0086 17.7441 16.7273 17.4628C16.446 17.1815 16.0645 17.0234 15.6667 17.0234C15.2688 17.0234 14.8873 17.1815 14.606 17.4628C14.3247 17.7441 14.1667 18.1256 14.1667 18.5234C14.1667 18.9213 14.3247 19.3028 14.606 19.5841C14.8873 19.8654 15.2688 20.0234 15.6667 20.0234ZM15.6667 21.5234C16.4623 21.5234 17.2254 21.2074 17.788 20.6448C18.3506 20.0821 18.6667 19.3191 18.6667 18.5234C18.6667 17.7278 18.3506 16.9647 17.788 16.4021C17.2254 15.8395 16.4623 15.5234 15.6667 15.5234C14.871 15.5234 14.108 15.8395 13.5454 16.4021C12.9827 16.9647 12.6667 17.7278 12.6667 18.5234C12.6667 19.3191 12.9827 20.0821 13.5454 20.6448C14.108 21.2074 14.871 21.5234 15.6667 21.5234ZM27.1667 18.5234C24.9857 18.5234 23.6067 19.2934 22.7697 20.2304C22.4737 20.5604 22.2597 20.8974 22.1027 21.2004C21.1937 20.9344 19.8927 20.8374 18.6127 21.6904C17.0577 22.7274 16.4257 24.1574 16.2347 25.2954C15.5236 25.5375 14.8684 25.9197 14.3077 26.4194C13.3897 27.2454 12.6667 28.4934 12.6667 30.2144C12.6667 32.2224 13.4937 33.6174 14.7467 34.4674C15.9377 35.2764 17.4127 35.5234 18.6667 35.5234H31.1667C32.3067 35.5234 33.6487 35.0994 34.7207 34.2594C35.8197 33.3984 36.6667 32.0694 36.6667 30.3024C36.6667 28.6384 36.0687 27.3124 35.0997 26.4054C34.4835 25.8338 33.7302 25.4308 32.9127 25.2354C33.0667 23.9754 32.7617 22.5884 32.0997 21.4294C31.1827 19.8264 29.5047 18.5234 27.1667 18.5234ZM23.6257 22.8074L23.6437 22.7434C23.7087 22.5094 23.8437 22.0304 24.2607 21.5634C24.6887 21.0834 25.5087 20.5234 27.1667 20.5234C28.6667 20.5234 29.7387 21.3304 30.3627 22.4224C31.0127 23.5584 31.0987 24.8684 30.7467 25.6934L30.1527 27.0854H31.6667C32.4407 27.0854 33.1887 27.3554 33.7337 27.8654C34.2637 28.3624 34.6667 29.1434 34.6667 30.3024C34.6667 31.3604 34.1807 32.1424 33.4867 32.6844C32.7677 33.2484 31.8597 33.5234 31.1667 33.5234H18.6667C17.6277 33.5234 16.6037 33.3104 15.8687 32.8124C15.1947 32.3534 14.6667 31.5954 14.6667 30.2134C14.6667 29.1134 15.1067 28.3904 15.6457 27.9054C16.2127 27.3944 16.9047 27.1404 17.3277 27.0724L18.1667 26.9354V26.0854C18.1667 25.3974 18.4607 24.1954 19.7217 23.3554C20.7117 22.6944 21.8087 23.1654 22.1357 23.3694L23.2517 24.0694L23.6257 22.8074ZM19.3867 28.1634C19.3867 26.4334 20.3137 25.3674 21.8167 25.3674C23.0447 25.3674 23.9837 26.2054 24.0627 27.3634H23.0087C22.9047 26.7524 22.4347 26.3494 21.8167 26.3494C21.0027 26.3494 20.4967 27.0434 20.4967 28.1644C20.4967 29.2864 21.0027 29.9824 21.8207 29.9824C22.4407 29.9824 22.9077 29.6074 23.0117 29.0214H24.0667C23.9767 30.1714 23.0667 30.9634 21.8167 30.9634C20.3167 30.9634 19.3867 29.8974 19.3867 28.1634ZM24.6667 28.1634C24.6667 26.4364 25.6047 25.3674 27.0707 25.3674C28.5437 25.3674 29.4667 26.4404 29.4667 28.1634C29.4667 29.8894 28.5467 30.9634 27.0707 30.9634C25.5907 30.9634 24.6667 29.8894 24.6667 28.1634ZM28.4017 28.1634C28.4017 27.0494 27.8837 26.3454 27.0707 26.3454C26.2607 26.3454 25.7357 27.0494 25.7357 28.1634C25.7357 29.2734 26.2507 29.9854 27.0707 29.9854C27.8837 29.9854 28.4017 29.2744 28.4017 28.1634ZM29.9467 29.8194C29.9467 29.1614 30.4227 28.7284 31.1467 28.7284C31.8477 28.7284 32.2977 29.1064 32.2977 29.6924C32.2977 30.0954 32.0927 30.4224 31.5297 30.8624L31.1627 31.1924V31.2544H32.3467V31.9804H30.0077V31.3364L30.8997 30.5214C31.3567 30.1154 31.4657 29.9724 31.4657 29.7784C31.4657 29.5804 31.3177 29.4444 31.1087 29.4444C30.8867 29.4444 30.7357 29.5944 30.7357 29.8144V29.8354H29.9467V29.8194Z" fill="#3A8241"/>
</g>
<defs>
<clipPath id="clip0_23616_2011">
<rect width="48" height="48" fill="white" transform="translate(0.666672 0.523438)"/>
</clipPath>
</defs>
</svg>
