<svg width="48" height="49" viewBox="0 0 48 49" fill="none" xmlns="http://www.w3.org/2000/svg">
<g clip-path="url(#clip0_23618_12)">
<path d="M46.967 26.3436C50.602 13.2236 44.314 0.598633 33.295 0.598633C27.198 0.598633 18.5 1.59863 14.898 10.2616C11.427 18.6076 0.5 11.0976 0 28.3436C0 42.5966 20.876 56.2596 26.668 43.3706C32.46 30.4816 43.333 39.4646 46.968 26.3436H46.967Z" fill="#E8F3FE"/>
<path fill-rule="evenodd" clip-rule="evenodd" d="M33 24.5234C33 26.9104 32.0518 29.1996 30.364 30.8874C28.6761 32.5752 26.3869 33.5234 24 33.5234C21.6131 33.5234 19.3239 32.5752 17.636 30.8874C15.9482 29.1996 15 26.9104 15 24.5234C15 22.1365 15.9482 19.8473 17.636 18.1595C19.3239 16.4716 21.6131 15.5234 24 15.5234C26.3869 15.5234 28.6761 16.4716 30.364 18.1595C32.0518 19.8473 33 22.1365 33 24.5234ZM35 24.5234C35 30.5984 30.075 35.5234 24 35.5234C17.925 35.5234 13 30.5984 13 24.5234C13 18.4484 17.925 13.5234 24 13.5234C30.075 13.5234 35 18.4484 35 24.5234ZM22.5 29.5234L18 25.0234L19.5 23.5234L22.5 26.5234L28.5 20.5234L30 22.0234L22.5 29.5234Z" fill="#2C70C1"/>
</g>
<defs>
<clipPath id="clip0_23618_12">
<rect width="48" height="48" fill="white" transform="translate(0 0.523438)"/>
</clipPath>
</defs>
</svg>
