<svg width="48" height="49" viewBox="0 0 48 49" fill="none" xmlns="http://www.w3.org/2000/svg">
<g clip-path="url(#clip0_23616_2087)">
<path d="M33.295 48.5234C44.314 48.5234 50.602 35.8984 46.967 22.7764C43.333 9.6544 33.966 17.8494 26.667 5.7494C18.654 -7.5406 1.387 6.8624 0 22.7764C0.53 31.3584 7.93 48.5234 33.295 48.5234Z" fill="#FFDD76"/>
<mask id="mask0_23616_2087" style="mask-type:alpha" maskUnits="userSpaceOnUse" x="12" y="14" width="24" height="21">
<path d="M32 16.5234V23.5234L36 20.0234L32 16.5234ZM18.75 14.5234C18.5511 14.5234 18.3603 14.6025 18.2197 14.7431C18.079 14.8838 18 15.0745 18 15.2734V33.7734C18 33.9723 18.079 34.1631 18.2197 34.3038C18.3603 34.4444 18.5511 34.5234 18.75 34.5234H29.25C29.4489 34.5234 29.6397 34.4444 29.7803 34.3038C29.921 34.1631 30 33.9723 30 33.7734V15.2734C30 15.0745 29.921 14.8838 29.7803 14.7431C29.6397 14.6025 29.4489 14.5234 29.25 14.5234H18.75ZM12 19.5234V21.0234H13.5V19.5234H12ZM15 19.5234V21.0234H16.5V19.5234H15ZM19.5 16.0234H28.5V33.0234H19.5V16.0234ZM21.25 17.5234C21.1483 17.5182 21.0465 17.5337 20.9509 17.569C20.8554 17.6043 20.768 17.6587 20.6941 17.7289C20.6202 17.799 20.5614 17.8835 20.5212 17.9771C20.481 18.0707 20.4603 18.1716 20.4603 18.2734C20.4603 18.3753 20.481 18.4761 20.5212 18.5698C20.5614 18.6634 20.6202 18.7478 20.6941 18.818C20.768 18.8882 20.8554 18.9426 20.9509 18.9779C21.0465 19.0132 21.1483 19.0287 21.25 19.0234H26.75C26.8517 19.0287 26.9535 19.0132 27.0491 18.9779C27.1446 18.9426 27.232 18.8882 27.3059 18.818C27.3798 18.7478 27.4386 18.6634 27.4788 18.5698C27.519 18.4761 27.5397 18.3753 27.5397 18.2734C27.5397 18.1716 27.519 18.0707 27.4788 17.9771C27.4386 17.8835 27.3798 17.799 27.3059 17.7289C27.232 17.6587 27.1446 17.6043 27.0491 17.569C26.9535 17.5337 26.8517 17.5182 26.75 17.5234H21.25ZM16 24.5234L12 28.0234L16 31.5234V24.5234ZM31.5 27.5234V29.0234H33V27.5234H31.5ZM34.5 27.5234V29.0234H36V27.5234H34.5Z" fill="white"/>
</mask>
<g mask="url(#mask0_23616_2087)">
<path d="M32 16.5234V23.5234L36 20.0234L32 16.5234ZM18.75 14.5234C18.5511 14.5234 18.3603 14.6025 18.2197 14.7431C18.079 14.8838 18 15.0745 18 15.2734V33.7734C18 33.9723 18.079 34.1631 18.2197 34.3038C18.3603 34.4444 18.5511 34.5234 18.75 34.5234H29.25C29.4489 34.5234 29.6397 34.4444 29.7803 34.3038C29.921 34.1631 30 33.9723 30 33.7734V15.2734C30 15.0745 29.921 14.8838 29.7803 14.7431C29.6397 14.6025 29.4489 14.5234 29.25 14.5234H18.75ZM12 19.5234V21.0234H13.5V19.5234H12ZM15 19.5234V21.0234H16.5V19.5234H15ZM19.5 16.0234H28.5V33.0234H19.5V16.0234ZM21.25 17.5234C21.1483 17.5182 21.0465 17.5337 20.9509 17.569C20.8554 17.6043 20.768 17.6587 20.6941 17.7289C20.6202 17.799 20.5614 17.8835 20.5212 17.9771C20.481 18.0707 20.4603 18.1716 20.4603 18.2734C20.4603 18.3753 20.481 18.4761 20.5212 18.5698C20.5614 18.6634 20.6202 18.7478 20.6941 18.818C20.768 18.8882 20.8554 18.9426 20.9509 18.9779C21.0465 19.0132 21.1483 19.0287 21.25 19.0234H26.75C26.8517 19.0287 26.9535 19.0132 27.0491 18.9779C27.1446 18.9426 27.232 18.8882 27.3059 18.818C27.3798 18.7478 27.4386 18.6634 27.4788 18.5698C27.519 18.4761 27.5397 18.3753 27.5397 18.2734C27.5397 18.1716 27.519 18.0707 27.4788 17.9771C27.4386 17.8835 27.3798 17.799 27.3059 17.7289C27.232 17.6587 27.1446 17.6043 27.0491 17.569C26.9535 17.5337 26.8517 17.5182 26.75 17.5234H21.25ZM16 24.5234L12 28.0234L16 31.5234V24.5234ZM31.5 27.5234V29.0234H33V27.5234H31.5ZM34.5 27.5234V29.0234H36V27.5234H34.5Z" fill="#63522B" stroke="#63522B" stroke-width="6.25"/>
</g>
</g>
<defs>
<clipPath id="clip0_23616_2087">
<rect width="48" height="48" fill="white" transform="translate(0 0.523438)"/>
</clipPath>
</defs>
</svg>
