<svg width="49" height="48" viewBox="0 0 49 48" fill="none" xmlns="http://www.w3.org/2000/svg">
<g clip-path="url(#clip0_23616_1885)">
<path d="M1.69963 25.747C-1.93537 12.625 4.35263 0 15.3716 0C21.4686 0 24.0716 3.504 30.7686 11.663C37.4666 19.822 47.0166 8.478 48.6666 25.747C47.2806 41.66 30.0146 56.064 21.9986 42.774C14.7006 30.674 5.33363 38.868 1.69863 25.747H1.69963Z" fill="#E6F1F9"/>
<path d="M12.6666 12V20H14.6666V19H20.6666C20.9318 19 21.1862 19.1054 21.3737 19.2929C21.5613 19.4804 21.6666 19.7348 21.6666 20V30C21.6666 32.75 23.9166 35 26.6666 35H34.6666V36H36.6666V28H34.6666V29H28.6666C28.4014 29 28.1471 28.8946 27.9595 28.7071C27.772 28.5196 27.6666 28.2652 27.6666 28V18C27.6666 15.25 25.4166 13 22.6666 13H14.6666V12H12.6666ZM14.6666 15H22.6666C24.3356 15 25.6666 16.331 25.6666 18V23H23.6666V19C23.6666 17.907 22.7596 17 21.6666 17H14.6666V15ZM23.6666 25H25.6666V29C25.6666 30.093 26.5736 31 27.6666 31H34.6666V33H26.6666C24.9976 33 23.6666 31.669 23.6666 30V25Z" fill="#036FC7"/>
<path d="M20.6666 23H28.6666V26H20.6666V23Z" fill="#036FC7"/>
</g>
<defs>
<clipPath id="clip0_23616_1885">
<rect width="48" height="48" fill="white" transform="translate(0.666626)"/>
</clipPath>
</defs>
</svg>
