<svg width="43" height="41" viewBox="0 0 43 41" fill="none" xmlns="http://www.w3.org/2000/svg">
<path d="M25.4695 0L24.3495 0.257072C24.3495 0.257072 15.4865 2.16061 11.6195 8.8605C7.21149 16.4987 12.1555 23.8017 12.1555 23.8017L13.3055 25.4892L14.7505 24.0358C14.7505 24.0358 16.0255 22.6954 18.4205 21.8812C20.8165 21.0669 24.1565 20.7979 28.5135 23.3136C35.0015 27.0606 37.5315 33.1363 38.2745 35.0929C36.2545 36.0032 28.9665 38.989 21.8405 34.8738C18.5935 32.9993 16.8245 31.0448 15.8365 29.7214C18.5545 29.3483 20.9745 29.6474 23.0225 30.1985C27.3425 31.3598 29.8735 33.6725 29.8735 33.6725L32.1265 31.2418C32.1265 31.2418 31.3435 30.4956 29.9165 29.6033C28.0391 28.4301 26.0007 27.5371 23.8655 26.9526C15.8365 25.7373 4.82949 25.0171 0.435486 37.5366L4.83049 37.5676C6.42049 33.0823 8.73249 31.2058 11.7645 30.6126C12.7475 32.1131 15.7365 35.2019 20.1725 37.7636C30.2045 43.5573 41.3545 37.5336 41.3545 37.5336L42.5645 36.9074L42.1705 35.595C42.1705 35.595 39.1325 25.5922 30.1805 20.4228C28.7502 19.5958 27.2122 18.9711 25.6105 18.5662C26.5515 17.4229 27.5105 15.9975 28.1785 13.9069C30.4195 6.93696 26.1445 0.931263 26.1445 0.931263L25.4695 0ZM23.9045 3.97312C24.6655 5.29349 26.3505 8.56242 24.9745 12.8396C24.2845 14.9792 23.2775 16.3836 22.4445 17.2209C21.6145 18.0571 21.1175 18.2601 21.1175 18.2601C19.7775 18.3362 18.3855 18.3682 17.3315 18.7233C17.0775 18.8093 16.8415 18.9293 16.6095 19.0284C17.0165 18.1271 17.4495 17.2329 17.9325 16.4206C18.6775 15.1613 19.4842 13.9395 20.3495 12.7596L17.7175 10.697C17.7175 10.697 16.4045 12.4075 15.0475 14.6941C14.4175 15.7575 13.8454 16.8541 13.3335 17.9791C12.8355 16.0955 12.7855 13.5678 14.5315 10.543C16.9585 6.33679 22.1815 4.51427 23.9045 3.97312Z" fill="#232B30"/>
</svg>
