<svg width="49" height="48" viewBox="0 0 49 48" fill="none" xmlns="http://www.w3.org/2000/svg">
<g clip-path="url(#clip0_23616_1822)">
<path d="M1.36635 25.747C-2.26865 12.625 4.01935 0 15.0383 0C21.1353 0 23.7383 3.504 30.4353 11.663C37.1333 19.822 46.6833 8.478 48.3333 25.747C46.9473 41.66 29.6813 56.064 21.6653 42.774C14.3673 30.674 5.00035 38.868 1.36535 25.747H1.36635Z" fill="#E6F1F9"/>
<path d="M21.0603 12L19.9703 14H12.3333V16H14.3333L15.3333 34C15.4893 35.2 16.5093 36 17.8513 36H30.7873C32.1303 36 33.1773 35.2 33.3333 34L34.3333 16H36.3333V14H28.6973L27.6063 12H21.0603ZM16.3333 16H32.3333L31.3333 34H17.3333L16.3333 16ZM20.3333 19L21.0603 28.5C21.0603 29.162 21.6583 30 22.3943 30H23.3333V19H20.3333ZM25.3333 19V30H26.5153C27.2513 30 27.6053 29.162 27.6053 28.5L28.3333 19H25.3333Z" fill="#036FC7"/>
</g>
<defs>
<clipPath id="clip0_23616_1822">
<rect width="48" height="48" fill="white" transform="translate(0.333344)"/>
</clipPath>
</defs>
</svg>
